<svg width="299" height="63" viewBox="0 0 299 63" fill="none" xmlns="http://www.w3.org/2000/svg">
<path d="M246.813 28.1901C246.858 46.4129 197.393 61.3099 136.329 61.4637" stroke="#00A050" stroke-width="2"/>
<path fill-rule="evenodd" clip-rule="evenodd" d="M294.904 25.8963C296.541 24.0725 297.087 22.524 296.987 21.2223C296.888 19.9207 296.113 18.4613 294.216 16.8764C292.317 15.2896 289.466 13.7319 285.654 12.2632C278.04 9.32993 267.036 6.91673 253.372 5.16996C226.078 1.68069 188.591 0.900896 147.402 3.68418C106.213 6.46746 69.2291 12.2794 42.7446 19.4027C29.4861 22.9687 18.9606 26.8367 11.8705 30.7635C8.32024 32.7298 5.73515 34.6547 4.09586 36.4807C2.45856 38.3044 1.91345 39.853 2.01273 41.1546C2.11202 42.4563 2.88656 43.9157 4.78385 45.5006C6.68344 47.0874 9.53416 48.645 13.3465 50.1138C20.9598 53.0471 31.9644 55.4603 45.6281 57.207C72.9221 60.6963 110.409 61.4761 151.598 58.6928C192.787 55.9095 229.771 50.0976 256.255 42.9743C269.514 39.4083 280.039 35.5403 287.129 31.6135C290.68 29.6472 293.265 27.7222 294.904 25.8963ZM151.75 60.687C234.307 55.1084 300.225 37.3791 298.983 21.0875C297.74 4.79591 229.807 -3.88865 147.25 1.68997C64.693 7.2686 -1.22535 24.9979 0.0172838 41.2895C1.25991 57.5811 69.193 66.2656 151.75 60.687Z" fill="#00A050"/>
</svg>
